<svg version="1.1" id="Layer_1" xmlns="http://www.w3.org/2000/svg" xmlns:xlink="http://www.w3.org/1999/xlink" x="0px" y="0px"
	 width="100%" viewBox="0 0 1622 736" enable-background="new 0 0 1622 736" xml:space="preserve">
<path fill="#202020" opacity="1.000000" stroke="none" 
	d="
M1131.000000,737.000000 
	C754.000000,737.000000 377.500000,737.000000 1.000000,737.000000 
	C1.000000,491.666656 1.000000,246.333328 1.000000,1.000000 
	C541.666687,1.000000 1082.333374,1.000000 1623.000000,1.000000 
	C1623.000000,246.333328 1623.000000,491.666656 1623.000000,737.000000 
	C1459.166626,737.000000 1295.333374,737.000000 1131.000000,737.000000 
M510.500000,479.006439 
	C520.662109,479.006195 530.824402,479.040192 540.986389,478.999268 
	C571.061462,478.878113 593.677551,456.252045 593.860962,426.126709 
	C593.882751,422.544556 593.863892,418.962097 593.863892,415.133057 
	C599.467041,415.133057 604.280090,415.195465 609.091064,415.121582 
	C624.689392,414.882111 636.790161,403.442352 637.218384,387.832764 
	C637.610962,373.517761 637.632019,359.172302 637.183960,344.860046 
	C636.705505,329.579407 624.497864,318.171570 609.199524,317.940826 
	C604.246277,317.866089 599.290894,317.929108 593.864441,317.929108 
	C593.864441,314.000427 593.880249,310.544250 593.861938,307.088226 
	C593.700684,276.705841 571.079773,254.156448 540.619568,254.072891 
	C522.294373,254.022629 503.968872,254.060745 485.643524,254.059204 
	C483.897308,254.059052 482.151093,254.059174 480.141998,254.059174 
	C480.141998,249.298660 480.181305,245.318344 480.133362,241.339081 
	C480.046326,234.112503 475.615356,229.147583 469.185303,229.001083 
	C462.511017,228.849030 457.741547,233.828781 457.580902,241.240509 
	C457.491730,245.355316 457.564911,249.473648 457.564911,254.062012 
	C455.237335,254.062012 453.436829,254.061920 451.636322,254.062027 
	C432.977783,254.063171 414.318573,253.965958 395.660828,254.089401 
	C370.073547,254.258713 348.765869,272.402802 344.814453,297.631927 
	C343.796448,304.131683 343.979034,310.819458 343.581726,317.928833 
	C339.073303,317.928833 334.619873,317.913605 330.166565,317.931519 
	C312.621338,318.002075 300.516357,329.773560 300.293121,347.236023 
	C300.129150,360.061676 300.137482,372.892517 300.285767,385.718506 
	C300.488342,403.239777 312.523132,415.046387 330.036407,415.135803 
	C334.628174,415.159271 339.220154,415.139343 343.982605,415.139343 
	C343.982605,418.916534 343.975342,421.909363 343.983734,424.902161 
	C344.073120,456.784515 366.223358,478.975403 398.048492,478.999817 
	C435.198975,479.028351 472.349487,479.006470 510.500000,479.006439 
M762.602234,333.499664 
	C762.602234,342.086060 762.602234,350.672485 762.602234,359.274902 
	C744.394775,359.274902 727.013977,359.274902 709.024780,359.274902 
	C709.024780,342.860382 709.024780,326.818634 709.024780,310.648254 
	C703.984314,310.648254 699.559692,310.648254 694.852417,310.648254 
	C694.852417,348.126770 694.852417,385.357697 694.852417,422.753052 
	C699.636719,422.753052 704.209351,422.753052 709.270996,422.753052 
	C709.270996,406.080200 709.270996,389.675873 709.270996,373.210083 
	C727.299866,373.210083 744.834534,373.210083 762.865356,373.210083 
	C762.865356,389.992828 762.865356,406.390747 762.865356,422.788666 
	C767.810974,422.788666 772.253601,422.788666 776.930969,422.788666 
	C776.930969,385.339478 776.930969,348.132172 776.930969,310.750061 
	C772.103882,310.750061 767.557739,310.750061 762.602234,310.750061 
	C762.602234,318.230957 762.602234,325.365356 762.602234,333.499664 
M1076.038452,376.738281 
	C1075.837891,367.480072 1078.823730,359.664795 1086.729126,354.361389 
	C1096.986572,347.479980 1109.358643,352.455750 1111.837158,364.513641 
	C1112.634644,368.393402 1112.823975,372.446564 1112.864136,376.424713 
	C1112.990479,388.914124 1112.913452,401.405609 1112.915039,413.896271 
	C1112.915405,416.833557 1112.915161,419.770844 1112.915161,422.825745 
	C1117.666138,422.825745 1121.767700,422.825745 1126.284058,422.825745 
	C1126.284058,419.808807 1126.258423,416.997253 1126.288330,414.186249 
	C1126.447876,399.205933 1126.312134,384.213379 1126.910889,369.250397 
	C1127.247437,360.844025 1133.429077,353.901794 1140.683594,352.063171 
	C1152.840942,348.982025 1162.430420,356.076324 1162.970337,369.352142 
	C1163.524780,382.987244 1163.241577,396.656586 1163.312988,410.311035 
	C1163.334473,414.425781 1163.316284,418.540741 1163.316284,422.620575 
	C1168.156860,422.620575 1172.361572,422.620575 1176.140747,422.620575 
	C1176.140747,403.081970 1176.746094,383.933075 1175.924438,364.845612 
	C1175.391846,352.472260 1167.062012,343.778290 1156.199829,341.287750 
	C1143.810181,338.446991 1131.987183,342.961792 1125.096313,353.165527 
	C1124.522705,354.014832 1123.951050,354.865326 1123.132202,356.080872 
	C1118.641724,345.042786 1110.703369,340.471893 1099.750854,340.625153 
	C1088.966431,340.776062 1081.028198,345.981903 1074.838867,355.717346 
	C1074.488403,350.556732 1074.219238,346.592010 1073.932861,342.372925 
	C1069.954102,342.372925 1066.211182,342.372925 1062.632935,342.372925 
	C1062.632935,369.316010 1062.632935,396.022339 1062.632935,422.775299 
	C1067.361938,422.775299 1071.461060,422.775299 1076.036133,422.775299 
	C1076.036133,407.576385 1076.036133,392.632874 1076.038452,376.738281 
M984.675720,399.534271 
	C983.838501,399.483856 982.734253,399.063904 982.208252,399.444061 
	C979.269104,401.568634 976.469788,403.886719 973.593140,406.162018 
	C986.662537,422.121368 1002.128479,426.619720 1019.967957,423.489410 
	C1031.821899,421.409424 1041.237549,415.299774 1044.997437,403.188538 
	C1048.729248,391.167450 1046.139404,380.291046 1036.557739,371.842926 
	C1031.533813,367.413544 1025.948120,363.528442 1020.255859,359.974609 
	C1013.775391,355.928619 1006.798279,352.686279 1000.220215,348.785614 
	C996.064636,346.321442 993.224976,342.717896 992.941284,337.525116 
	C992.452820,328.583984 998.305237,322.107849 1008.013123,321.001465 
	C1019.021301,319.746857 1027.877319,323.704224 1034.978149,332.594421 
	C1038.183105,330.210571 1041.199219,327.967255 1044.620483,325.422607 
	C1042.627197,322.936432 1041.136230,320.475250 1039.091553,318.626526 
	C1027.821045,308.436371 1014.419678,306.765961 1000.271912,310.039154 
	C989.308105,312.575653 981.331909,318.956757 978.834351,330.568268 
	C976.299988,342.350677 980.730591,351.527588 990.184875,358.362823 
	C994.888428,361.763397 1000.055298,364.521240 1004.997620,367.593842 
	C1011.446106,371.602753 1018.105164,375.321777 1024.259399,379.742096 
	C1031.027710,384.603333 1033.168457,391.604401 1031.094604,399.661713 
	C1029.341309,406.473328 1022.815369,411.228699 1014.580261,412.046600 
	C1002.680664,413.228394 993.200989,408.426758 984.675720,399.534271 
M925.986389,412.826630 
	C912.569702,410.546661 904.208191,400.589355 905.724487,388.187805 
	C924.406006,388.187805 943.148193,388.187805 962.682495,388.187805 
	C962.158386,381.785950 961.897766,375.851135 961.148193,369.978760 
	C959.135315,354.209076 948.290710,342.781097 933.921509,340.988037 
	C915.500000,338.689331 900.994263,346.246796 894.841309,361.701233 
	C891.139404,370.999573 890.363281,380.765320 891.649170,390.661255 
	C894.805115,414.949463 910.442993,427.141235 934.632385,423.952637 
	C944.908752,422.598022 953.384705,417.970978 958.301147,410.527466 
	C955.789001,407.110565 953.832031,404.448730 951.742737,401.606903 
	C945.111877,410.005615 936.799561,413.356140 925.986389,412.826630 
M1247.130127,419.490021 
	C1248.715332,423.270538 1252.882812,424.116333 1259.033081,422.186646 
	C1258.696533,413.741364 1258.219727,405.451721 1258.073242,397.156219 
	C1257.897095,387.166718 1258.122314,377.170197 1257.947144,367.180664 
	C1257.803833,359.010803 1255.204102,351.807159 1248.525635,346.569824 
	C1234.239136,335.365875 1207.028809,339.495514 1196.303467,354.630402 
	C1198.421631,357.219391 1200.573364,359.849457 1202.759888,362.522003 
	C1213.249634,351.774292 1226.304199,348.285797 1236.029785,353.266235 
	C1242.789551,356.727844 1245.727661,364.769104 1243.700317,374.902069 
	C1238.661743,374.902069 1233.510132,374.617462 1228.404053,374.977539 
	C1222.626221,375.384918 1216.697021,375.688538 1211.173340,377.243652 
	C1198.726562,380.747833 1192.186890,390.416107 1193.420532,402.147156 
	C1194.719971,414.505157 1203.802734,423.097687 1216.612915,424.229462 
	C1228.136230,425.247528 1237.813477,421.624634 1245.751221,411.985809 
	C1246.283813,414.864532 1246.635986,416.767609 1247.130127,419.490021 
M1356.309570,423.321686 
	C1360.762939,423.611725 1365.237427,424.325378 1369.665405,424.105164 
	C1379.418945,423.620026 1380.028320,422.667542 1378.583984,413.162720 
	C1378.540405,412.876648 1378.224731,412.631897 1377.932983,412.223907 
	C1377.042114,412.415222 1376.092407,412.646637 1375.132446,412.821228 
	C1360.210327,415.534882 1354.998291,411.239136 1354.959229,396.149841 
	C1354.931274,385.331421 1354.951538,374.512848 1354.950439,363.694366 
	C1354.950073,360.094391 1354.950439,356.494446 1354.950439,352.347504 
	C1362.869141,352.347504 1370.114014,352.347504 1377.399658,352.347504 
	C1377.399658,348.681671 1377.399658,345.578003 1377.399658,341.968933 
	C1369.922485,341.968933 1362.684937,341.968933 1354.994629,341.968933 
	C1354.994629,333.385498 1354.994629,325.297516 1354.994629,316.535309 
	C1351.245850,317.678925 1348.152344,318.880554 1344.946655,319.527466 
	C1341.793091,320.163940 1341.093994,321.849243 1341.205688,324.795563 
	C1341.417480,330.382263 1341.266968,335.982727 1341.266968,342.029083 
	C1336.203979,342.029083 1331.783813,342.029083 1327.263916,342.029083 
	C1327.263916,345.717987 1327.263916,348.930573 1327.263916,352.680573 
	C1331.976318,352.680573 1336.391968,352.680573 1341.264771,352.680573 
	C1341.264771,358.168335 1341.212402,363.125793 1341.275146,368.081818 
	C1341.430786,380.387970 1341.196655,392.721588 1341.977173,404.989563 
	C1342.520874,413.534973 1347.213379,419.918488 1356.309570,423.321686 
M1279.980957,387.500000 
	C1279.980957,399.254425 1279.980957,411.008881 1279.980957,422.841003 
	C1284.788452,422.841003 1288.903809,422.841003 1293.611084,422.841003 
	C1293.611084,420.859894 1293.610718,419.072144 1293.611328,417.284393 
	C1293.614990,405.958984 1293.495117,394.631714 1293.663330,383.308746 
	C1293.788940,374.848541 1295.479248,366.770233 1301.108643,360.023956 
	C1306.817505,353.182465 1314.249756,350.754974 1323.145020,352.189789 
	C1323.145020,348.168213 1323.145020,344.738678 1323.145020,340.954254 
	C1309.794556,339.376831 1299.860840,344.140747 1293.208252,356.766205 
	C1292.756592,351.085999 1292.406738,346.686432 1292.062988,342.362244 
	C1287.658203,342.362244 1283.898315,342.362244 1279.981201,342.362244 
	C1279.981201,357.249298 1279.981201,371.874634 1279.980957,387.500000 
M853.105042,356.012054 
	C852.788635,351.442169 852.472229,346.872253 852.158813,342.345642 
	C847.712280,342.345642 843.949829,342.345642 840.255005,342.345642 
	C840.255005,369.321472 840.255005,396.043610 840.255005,422.639343 
	C844.938965,422.639343 849.157349,422.639343 853.681396,422.639343 
	C853.681396,420.592438 853.680603,418.946289 853.681519,417.300110 
	C853.687744,405.802673 853.538452,394.302338 853.750061,382.808685 
	C853.919312,373.613800 856.047974,365.009857 862.858643,358.179230 
	C868.468933,352.552338 875.382446,351.039459 883.195312,352.147095 
	C883.195312,348.149017 883.195312,344.727753 883.195312,341.362000 
	C870.675659,338.769196 860.842041,343.758148 853.105042,356.012054 
M816.717285,343.973969 
	C815.927490,343.349579 815.164734,342.231171 814.343140,342.186066 
	C810.739197,341.988159 807.118225,342.100769 803.389282,342.100769 
	C803.389282,369.358521 803.389282,396.059082 803.389282,422.660583 
	C807.965576,422.660583 812.192078,422.660583 816.749390,422.660583 
	C816.749390,396.487610 816.749390,370.693390 816.717285,343.973969 
M413.348450,221.069504 
	C416.978485,223.100861 420.546326,225.254898 424.252930,227.135330 
	C430.063202,230.082962 436.214600,228.305038 439.417786,222.942200 
	C442.598511,217.616898 441.052917,211.326447 435.333557,207.857025 
	C429.076630,204.061508 422.684784,200.471527 416.219543,197.041122 
	C410.398834,193.952713 404.341217,195.806534 401.163391,201.301392 
	C398.219055,206.392380 399.718567,212.611252 404.949707,216.196686 
	C407.412354,217.884552 410.110535,219.228806 413.348450,221.069504 
M510.001007,228.459518 
	C517.195862,224.711426 524.475769,221.115921 531.560364,217.169907 
	C537.932373,213.620804 540.068176,207.119812 537.092041,201.583649 
	C534.001282,195.834259 527.176575,194.175735 520.640564,197.728867 
	C515.093506,200.744354 509.609894,203.879196 504.142578,207.038040 
	C498.801544,210.123886 496.539917,214.671234 497.654236,219.796646 
	C498.880829,225.438736 502.387390,228.101105 510.001007,228.459518 
M457.557404,189.350311 
	C457.561890,191.010620 457.515503,192.672913 457.579803,194.330902 
	C457.837952,200.985825 462.566284,205.870026 468.771942,205.933853 
	C475.169952,205.999649 480.026917,200.981064 480.119812,194.015869 
	C480.210602,187.209717 480.234711,180.399734 480.113556,173.594528 
	C479.994843,166.928680 475.181152,162.045654 468.954895,162.011078 
	C462.726837,161.976486 457.849213,166.769547 457.608215,173.448441 
	C457.428711,178.423111 457.562531,183.409073 457.557404,189.350311 
M818.770630,323.121796 
	C819.000183,321.652496 819.870789,319.868103 819.333801,318.775665 
	C817.967224,315.995728 816.453796,312.063416 814.108887,311.289276 
	C810.958130,310.249146 806.329529,310.729218 803.553955,312.484131 
	C801.489746,313.789276 800.221252,318.358887 800.708496,321.099457 
	C801.149292,323.579315 804.064758,326.598114 806.571045,327.515167 
	C810.929382,329.109863 815.489685,328.297516 818.770630,323.121796 
z"/>
<path fill="#C7B3D6" opacity="1.000000" stroke="none" 
	d="
M510.000000,479.006439 
	C472.349487,479.006470 435.198975,479.028351 398.048492,478.999817 
	C366.223358,478.975403 344.073120,456.784515 343.983734,424.902161 
	C343.975342,421.909363 343.982605,418.916534 343.982605,415.139343 
	C339.220154,415.139343 334.628174,415.159271 330.036407,415.135803 
	C312.523132,415.046387 300.488342,403.239777 300.285767,385.718506 
	C300.137482,372.892517 300.129150,360.061676 300.293121,347.236023 
	C300.516357,329.773560 312.621338,318.002075 330.166565,317.931519 
	C334.619873,317.913605 339.073303,317.928833 343.581726,317.928833 
	C343.979034,310.819458 343.796448,304.131683 344.814453,297.631927 
	C348.765869,272.402802 370.073547,254.258713 395.660828,254.089401 
	C414.318573,253.965958 432.977783,254.063171 451.636322,254.062027 
	C453.436829,254.061920 455.237335,254.062012 457.564911,254.062012 
	C457.564911,249.473648 457.491730,245.355316 457.580902,241.240509 
	C457.741547,233.828781 462.511017,228.849030 469.185303,229.001083 
	C475.615356,229.147583 480.046326,234.112503 480.133362,241.339081 
	C480.181305,245.318344 480.141998,249.298660 480.141998,254.059174 
	C482.151093,254.059174 483.897308,254.059052 485.643524,254.059204 
	C503.968872,254.060745 522.294373,254.022629 540.619568,254.072891 
	C571.079773,254.156448 593.700684,276.705841 593.861938,307.088226 
	C593.880249,310.544250 593.864441,314.000427 593.864441,317.929108 
	C599.290894,317.929108 604.246277,317.866089 609.199524,317.940826 
	C624.497864,318.171570 636.705505,329.579407 637.183960,344.860046 
	C637.632019,359.172302 637.610962,373.517761 637.218384,387.832764 
	C636.790161,403.442352 624.689392,414.882111 609.091064,415.121582 
	C604.280090,415.195465 599.467041,415.133057 593.863892,415.133057 
	C593.863892,418.962097 593.882751,422.544556 593.860962,426.126709 
	C593.677551,456.252045 571.061462,478.878113 540.986389,478.999268 
	C530.824402,479.040192 520.662109,479.006195 510.000000,479.006439 
M366.803497,431.463135 
	C369.433502,446.561554 380.862793,456.173492 396.606598,456.194794 
	C443.911987,456.258850 491.224091,455.766296 538.519775,456.449280 
	C557.270142,456.720062 571.869202,443.704803 571.550964,423.613220 
	C570.946960,385.478638 571.397461,347.327576 571.377625,309.183380 
	C571.366699,288.097900 559.680969,276.387329 538.584839,276.372955 
	C492.112213,276.341339 445.639526,276.336487 399.166931,276.372742 
	C378.125580,276.389160 366.325562,288.209625 366.310913,309.195648 
	C366.284424,347.173279 366.284912,385.150940 366.302734,423.128571 
	C366.303894,425.619904 366.547699,428.111084 366.803497,431.463135 
M344.004120,347.595215 
	C344.004120,345.188721 344.004120,342.782257 344.004120,340.152435 
	C338.568451,340.152435 333.926056,340.051514 329.290222,340.182495 
	C325.154968,340.299286 322.815643,342.434235 322.814789,346.745117 
	C322.812256,359.878906 322.815979,373.012695 322.812958,386.146484 
	C322.812134,389.658661 324.543793,392.131592 327.969910,392.368591 
	C333.206635,392.730835 338.486877,392.463593 344.004242,392.463593 
	C344.004242,377.477783 344.004242,363.024078 344.004120,347.595215 
M593.859253,386.413361 
	C593.859253,388.497589 593.859253,390.581818 593.859253,392.932648 
	C599.220337,392.932648 603.854736,393.018402 608.484375,392.907196 
	C612.660400,392.806915 614.992737,390.549713 615.010193,386.339447 
	C615.065308,373.038116 615.067627,359.736145 614.993469,346.434967 
	C614.972656,342.702118 612.800842,340.442108 609.146545,340.258209 
	C604.219666,340.010254 599.270935,340.196655 593.859436,340.196655 
	C593.859436,355.583923 593.859436,370.506836 593.859253,386.413361 
z"/>
<path fill="#C6B3D6" opacity="1.000000" stroke="none" 
	d="
M762.602234,332.999695 
	C762.602234,325.365356 762.602234,318.230957 762.602234,310.750061 
	C767.557739,310.750061 772.103882,310.750061 776.930969,310.750061 
	C776.930969,348.132172 776.930969,385.339478 776.930969,422.788666 
	C772.253601,422.788666 767.810974,422.788666 762.865356,422.788666 
	C762.865356,406.390747 762.865356,389.992828 762.865356,373.210083 
	C744.834534,373.210083 727.299866,373.210083 709.270996,373.210083 
	C709.270996,389.675873 709.270996,406.080200 709.270996,422.753052 
	C704.209351,422.753052 699.636719,422.753052 694.852417,422.753052 
	C694.852417,385.357697 694.852417,348.126770 694.852417,310.648254 
	C699.559692,310.648254 703.984314,310.648254 709.024780,310.648254 
	C709.024780,326.818634 709.024780,342.860382 709.024780,359.274902 
	C727.013977,359.274902 744.394775,359.274902 762.602234,359.274902 
	C762.602234,350.672485 762.602234,342.086060 762.602234,332.999695 
z"/>
<path fill="#C4B2D4" opacity="1.000000" stroke="none" 
	d="
M1076.037354,377.213806 
	C1076.036133,392.632874 1076.036133,407.576385 1076.036133,422.775299 
	C1071.461060,422.775299 1067.361938,422.775299 1062.632935,422.775299 
	C1062.632935,396.022339 1062.632935,369.316010 1062.632935,342.372925 
	C1066.211182,342.372925 1069.954102,342.372925 1073.932861,342.372925 
	C1074.219238,346.592010 1074.488403,350.556732 1074.838867,355.717346 
	C1081.028198,345.981903 1088.966431,340.776062 1099.750854,340.625153 
	C1110.703369,340.471893 1118.641724,345.042786 1123.132202,356.080872 
	C1123.951050,354.865326 1124.522705,354.014832 1125.096313,353.165527 
	C1131.987183,342.961792 1143.810181,338.446991 1156.199829,341.287750 
	C1167.062012,343.778290 1175.391846,352.472260 1175.924438,364.845612 
	C1176.746094,383.933075 1176.140747,403.081970 1176.140747,422.620575 
	C1172.361572,422.620575 1168.156860,422.620575 1163.316284,422.620575 
	C1163.316284,418.540741 1163.334473,414.425781 1163.312988,410.311035 
	C1163.241577,396.656586 1163.524780,382.987244 1162.970337,369.352142 
	C1162.430420,356.076324 1152.840942,348.982025 1140.683594,352.063171 
	C1133.429077,353.901794 1127.247437,360.844025 1126.910889,369.250397 
	C1126.312134,384.213379 1126.447876,399.205933 1126.288330,414.186249 
	C1126.258423,416.997253 1126.284058,419.808807 1126.284058,422.825745 
	C1121.767700,422.825745 1117.666138,422.825745 1112.915161,422.825745 
	C1112.915161,419.770844 1112.915405,416.833557 1112.915039,413.896271 
	C1112.913452,401.405609 1112.990479,388.914124 1112.864136,376.424713 
	C1112.823975,372.446564 1112.634644,368.393402 1111.837158,364.513641 
	C1109.358643,352.455750 1096.986572,347.479980 1086.729126,354.361389 
	C1078.823730,359.664795 1075.837891,367.480072 1076.037354,377.213806 
z"/>
<path fill="#C4B2D4" opacity="1.000000" stroke="none" 
	d="
M984.917664,399.815430 
	C993.200989,408.426758 1002.680664,413.228394 1014.580261,412.046600 
	C1022.815369,411.228699 1029.341309,406.473328 1031.094604,399.661713 
	C1033.168457,391.604401 1031.027710,384.603333 1024.259399,379.742096 
	C1018.105164,375.321777 1011.446106,371.602753 1004.997620,367.593842 
	C1000.055298,364.521240 994.888428,361.763397 990.184875,358.362823 
	C980.730591,351.527588 976.299988,342.350677 978.834351,330.568268 
	C981.331909,318.956757 989.308105,312.575653 1000.271912,310.039154 
	C1014.419678,306.765961 1027.821045,308.436371 1039.091553,318.626526 
	C1041.136230,320.475250 1042.627197,322.936432 1044.620483,325.422607 
	C1041.199219,327.967255 1038.183105,330.210571 1034.978149,332.594421 
	C1027.877319,323.704224 1019.021301,319.746857 1008.013123,321.001465 
	C998.305237,322.107849 992.452820,328.583984 992.941284,337.525116 
	C993.224976,342.717896 996.064636,346.321442 1000.220215,348.785614 
	C1006.798279,352.686279 1013.775391,355.928619 1020.255859,359.974609 
	C1025.948120,363.528442 1031.533813,367.413544 1036.557739,371.842926 
	C1046.139404,380.291046 1048.729248,391.167450 1044.997437,403.188538 
	C1041.237549,415.299774 1031.821899,421.409424 1019.967957,423.489410 
	C1002.128479,426.619720 986.662537,422.121368 973.593140,406.162018 
	C976.469788,403.886719 979.269104,401.568634 982.208252,399.444061 
	C982.734253,399.063904 983.838501,399.483856 984.917664,399.815430 
z"/>
<path fill="#C4B1D4" opacity="1.000000" stroke="none" 
	d="
M926.409058,412.858337 
	C936.799561,413.356140 945.111877,410.005615 951.742737,401.606903 
	C953.832031,404.448730 955.789001,407.110565 958.301147,410.527466 
	C953.384705,417.970978 944.908752,422.598022 934.632385,423.952637 
	C910.442993,427.141235 894.805115,414.949463 891.649170,390.661255 
	C890.363281,380.765320 891.139404,370.999573 894.841309,361.701233 
	C900.994263,346.246796 915.500000,338.689331 933.921509,340.988037 
	C948.290710,342.781097 959.135315,354.209076 961.148193,369.978760 
	C961.897766,375.851135 962.158386,381.785950 962.682495,388.187805 
	C943.148193,388.187805 924.406006,388.187805 905.724487,388.187805 
	C904.208191,400.589355 912.569702,410.546661 926.409058,412.858337 
M923.048767,351.990875 
	C911.378845,354.964752 904.352600,365.347076 905.587708,377.805054 
	C920.314270,377.805054 935.040833,377.805054 949.752625,377.805054 
	C950.148254,359.648529 941.125854,350.737122 923.048767,351.990875 
z"/>
<path fill="#C4B1D3" opacity="1.000000" stroke="none" 
	d="
M1247.059082,419.080353 
	C1246.635986,416.767609 1246.283813,414.864532 1245.751221,411.985809 
	C1237.813477,421.624634 1228.136230,425.247528 1216.612915,424.229462 
	C1203.802734,423.097687 1194.719971,414.505157 1193.420532,402.147156 
	C1192.186890,390.416107 1198.726562,380.747833 1211.173340,377.243652 
	C1216.697021,375.688538 1222.626221,375.384918 1228.404053,374.977539 
	C1233.510132,374.617462 1238.661743,374.902069 1243.700317,374.902069 
	C1245.727661,364.769104 1242.789551,356.727844 1236.029785,353.266235 
	C1226.304199,348.285797 1213.249634,351.774292 1202.759888,362.522003 
	C1200.573364,359.849457 1198.421631,357.219391 1196.303467,354.630402 
	C1207.028809,339.495514 1234.239136,335.365875 1248.525635,346.569824 
	C1255.204102,351.807159 1257.803833,359.010803 1257.947144,367.180664 
	C1258.122314,377.170197 1257.897095,387.166718 1258.073242,397.156219 
	C1258.219727,405.451721 1258.696533,413.741364 1259.033081,422.186646 
	C1252.882812,424.116333 1248.715332,423.270538 1247.059082,419.080353 
M1214.574829,412.261292 
	C1223.887451,415.421295 1232.320801,413.693146 1239.563477,407.195679 
	C1246.524536,400.950745 1244.211182,392.747955 1244.174805,384.068268 
	C1234.833130,384.736572 1226.031616,384.827332 1217.425781,386.171844 
	C1211.713989,387.064240 1207.721924,391.122375 1206.913208,397.342224 
	C1206.090088,403.672882 1207.860718,408.838959 1214.574829,412.261292 
z"/>
<path fill="#C2B0D1" opacity="1.000000" stroke="none" 
	d="
M1355.934937,423.203430 
	C1347.213379,419.918488 1342.520874,413.534973 1341.977173,404.989563 
	C1341.196655,392.721588 1341.430786,380.387970 1341.275146,368.081818 
	C1341.212402,363.125793 1341.264771,358.168335 1341.264771,352.680573 
	C1336.391968,352.680573 1331.976318,352.680573 1327.263916,352.680573 
	C1327.263916,348.930573 1327.263916,345.717987 1327.263916,342.029083 
	C1331.783813,342.029083 1336.203979,342.029083 1341.266968,342.029083 
	C1341.266968,335.982727 1341.417480,330.382263 1341.205688,324.795563 
	C1341.093994,321.849243 1341.793091,320.163940 1344.946655,319.527466 
	C1348.152344,318.880554 1351.245850,317.678925 1354.994629,316.535309 
	C1354.994629,325.297516 1354.994629,333.385498 1354.994629,341.968933 
	C1362.684937,341.968933 1369.922485,341.968933 1377.399658,341.968933 
	C1377.399658,345.578003 1377.399658,348.681671 1377.399658,352.347504 
	C1370.114014,352.347504 1362.869141,352.347504 1354.950439,352.347504 
	C1354.950439,356.494446 1354.950073,360.094391 1354.950439,363.694366 
	C1354.951538,374.512848 1354.931274,385.331421 1354.959229,396.149841 
	C1354.998291,411.239136 1360.210327,415.534882 1375.132446,412.821228 
	C1376.092407,412.646637 1377.042114,412.415222 1377.932983,412.223907 
	C1378.224731,412.631897 1378.540405,412.876648 1378.583984,413.162720 
	C1380.028320,422.667542 1379.418945,423.620026 1369.665405,424.105164 
	C1365.237427,424.325378 1360.762939,423.611725 1355.934937,423.203430 
z"/>
<path fill="#C3B1D2" opacity="1.000000" stroke="none" 
	d="
M1279.981079,387.000000 
	C1279.981201,371.874634 1279.981201,357.249298 1279.981201,342.362244 
	C1283.898315,342.362244 1287.658203,342.362244 1292.062988,342.362244 
	C1292.406738,346.686432 1292.756592,351.085999 1293.208252,356.766205 
	C1299.860840,344.140747 1309.794556,339.376831 1323.145020,340.954254 
	C1323.145020,344.738678 1323.145020,348.168213 1323.145020,352.189789 
	C1314.249756,350.754974 1306.817505,353.182465 1301.108643,360.023956 
	C1295.479248,366.770233 1293.788940,374.848541 1293.663330,383.308746 
	C1293.495117,394.631714 1293.614990,405.958984 1293.611328,417.284393 
	C1293.610718,419.072144 1293.611084,420.859894 1293.611084,422.841003 
	C1288.903809,422.841003 1284.788452,422.841003 1279.980957,422.841003 
	C1279.980957,411.008881 1279.980957,399.254425 1279.981079,387.000000 
z"/>
<path fill="#C3B1D2" opacity="1.000000" stroke="none" 
	d="
M853.455811,356.049011 
	C860.842041,343.758148 870.675659,338.769196 883.195312,341.362000 
	C883.195312,344.727753 883.195312,348.149017 883.195312,352.147095 
	C875.382446,351.039459 868.468933,352.552338 862.858643,358.179230 
	C856.047974,365.009857 853.919312,373.613800 853.750061,382.808685 
	C853.538452,394.302338 853.687744,405.802673 853.681519,417.300110 
	C853.680603,418.946289 853.681396,420.592438 853.681396,422.639343 
	C849.157349,422.639343 844.938965,422.639343 840.255005,422.639343 
	C840.255005,396.043610 840.255005,369.321472 840.255005,342.345642 
	C843.949829,342.345642 847.712280,342.345642 852.158813,342.345642 
	C852.472229,346.872253 852.788635,351.442169 853.455811,356.049011 
z"/>
<path fill="#C2AED0" opacity="1.000000" stroke="none" 
	d="
M816.733337,344.436584 
	C816.749390,370.693390 816.749390,396.487610 816.749390,422.660583 
	C812.192078,422.660583 807.965576,422.660583 803.389282,422.660583 
	C803.389282,396.059082 803.389282,369.358521 803.389282,342.100769 
	C807.118225,342.100769 810.739197,341.988159 814.343140,342.186066 
	C815.164734,342.231171 815.927490,343.349579 816.733337,344.436584 
z"/>
<path fill="#C5B2D5" opacity="1.000000" stroke="none" 
	d="
M413.025208,220.899139 
	C410.110535,219.228806 407.412354,217.884552 404.949707,216.196686 
	C399.718567,212.611252 398.219055,206.392380 401.163391,201.301392 
	C404.341217,195.806534 410.398834,193.952713 416.219543,197.041122 
	C422.684784,200.471527 429.076630,204.061508 435.333557,207.857025 
	C441.052917,211.326447 442.598511,217.616898 439.417786,222.942200 
	C436.214600,228.305038 430.063202,230.082962 424.252930,227.135330 
	C420.546326,225.254898 416.978485,223.100861 413.025208,220.899139 
z"/>
<path fill="#C5B2D5" opacity="1.000000" stroke="none" 
	d="
M509.614441,228.521790 
	C502.387390,228.101105 498.880829,225.438736 497.654236,219.796646 
	C496.539917,214.671234 498.801544,210.123886 504.142578,207.038040 
	C509.609894,203.879196 515.093506,200.744354 520.640564,197.728867 
	C527.176575,194.175735 534.001282,195.834259 537.092041,201.583649 
	C540.068176,207.119812 537.932373,213.620804 531.560364,217.169907 
	C524.475769,221.115921 517.195862,224.711426 509.614441,228.521790 
z"/>
<path fill="#C6B3D6" opacity="1.000000" stroke="none" 
	d="
M457.557098,188.870163 
	C457.562531,183.409073 457.428711,178.423111 457.608215,173.448441 
	C457.849213,166.769547 462.726837,161.976486 468.954895,162.011078 
	C475.181152,162.045654 479.994843,166.928680 480.113556,173.594528 
	C480.234711,180.399734 480.210602,187.209717 480.119812,194.015869 
	C480.026917,200.981064 475.169952,205.999649 468.771942,205.933853 
	C462.566284,205.870026 457.837952,200.985825 457.579803,194.330902 
	C457.515503,192.672913 457.561890,191.010620 457.557098,188.870163 
z"/>
<path fill="#C2B0D1" opacity="1.000000" stroke="none" 
	d="
M818.582886,323.451111 
	C815.489685,328.297516 810.929382,329.109863 806.571045,327.515167 
	C804.064758,326.598114 801.149292,323.579315 800.708496,321.099457 
	C800.221252,318.358887 801.489746,313.789276 803.553955,312.484131 
	C806.329529,310.729218 810.958130,310.249146 814.108887,311.289276 
	C816.453796,312.063416 817.967224,315.995728 819.333801,318.775665 
	C819.870789,319.868103 819.000183,321.652496 818.582886,323.451111 
z"/>
<path fill="#212121" opacity="1.000000" stroke="none" 
	d="
M366.741058,431.032745 
	C366.547699,428.111084 366.303894,425.619904 366.302734,423.128571 
	C366.284912,385.150940 366.284424,347.173279 366.310913,309.195648 
	C366.325562,288.209625 378.125580,276.389160 399.166931,276.372742 
	C445.639526,276.336487 492.112213,276.341339 538.584839,276.372955 
	C559.680969,276.387329 571.366699,288.097900 571.377625,309.183380 
	C571.397461,347.327576 570.946960,385.478638 571.550964,423.613220 
	C571.869202,443.704803 557.270142,456.720062 538.519775,456.449280 
	C491.224091,455.766296 443.911987,456.258850 396.606598,456.194794 
	C380.862793,456.173492 369.433502,446.561554 366.741058,431.032745 
M442.148956,423.434937 
	C472.013733,440.596405 507.000793,426.963776 515.792053,394.740021 
	C518.066467,386.403564 514.989136,382.310791 506.297974,382.287140 
	C490.807678,382.244995 475.317200,382.272095 459.826782,382.272675 
	C449.832977,382.273041 439.837280,382.161011 429.846069,382.323151 
	C423.548584,382.425385 419.974670,386.743500 421.447754,392.464844 
	C424.651978,404.909607 430.546448,415.671753 442.148956,423.434937 
M490.626434,330.307587 
	C488.427429,344.710999 498.344757,357.212250 512.484802,357.861053 
	C524.669067,358.420105 535.200073,349.582214 536.816162,337.441620 
	C538.436523,325.268341 530.089844,313.907349 517.811035,311.573029 
	C505.475616,309.227905 494.331238,316.627686 490.626434,330.307587 
M428.618958,311.624603 
	C410.889557,309.140594 397.035858,324.016693 401.617096,340.619202 
	C404.620911,351.505127 414.857544,358.715424 426.043396,357.824158 
	C437.431519,356.916779 446.322449,348.079376 447.511505,336.485260 
	C448.667084,325.217407 441.311310,315.175690 428.618958,311.624603 
z"/>
<path fill="#222223" opacity="1.000000" stroke="none" 
	d="
M344.004181,348.082825 
	C344.004242,363.024078 344.004242,377.477783 344.004242,392.463593 
	C338.486877,392.463593 333.206635,392.730835 327.969910,392.368591 
	C324.543793,392.131592 322.812134,389.658661 322.812958,386.146484 
	C322.815979,373.012695 322.812256,359.878906 322.814789,346.745117 
	C322.815643,342.434235 325.154968,340.299286 329.290222,340.182495 
	C333.926056,340.051514 338.568451,340.152435 344.004120,340.152435 
	C344.004120,342.782257 344.004120,345.188721 344.004181,348.082825 
z"/>
<path fill="#212121" opacity="1.000000" stroke="none" 
	d="
M593.859375,385.921570 
	C593.859436,370.506836 593.859436,355.583923 593.859436,340.196655 
	C599.270935,340.196655 604.219666,340.010254 609.146545,340.258209 
	C612.800842,340.442108 614.972656,342.702118 614.993469,346.434967 
	C615.067627,359.736145 615.065308,373.038116 615.010193,386.339447 
	C614.992737,390.549713 612.660400,392.806915 608.484375,392.907196 
	C603.854736,393.018402 599.220337,392.932648 593.859253,392.932648 
	C593.859253,390.581818 593.859253,388.497589 593.859375,385.921570 
z"/>
<path fill="#212121" opacity="1.000000" stroke="none" 
	d="
M923.488831,351.944702 
	C941.125854,350.737122 950.148254,359.648529 949.752625,377.805054 
	C935.040833,377.805054 920.314270,377.805054 905.585938,377.801208 
	C904.352600,365.347076 911.378845,354.964752 923.488831,351.944702 
z"/>
<path fill="#222223" opacity="1.000000" stroke="none" 
	d="
M1214.217773,412.110687 
	C1207.860718,408.838959 1206.090088,403.672882 1206.913208,397.342224 
	C1207.721924,391.122375 1211.713989,387.064240 1217.425781,386.171844 
	C1226.031616,384.827332 1234.833130,384.736572 1244.174805,384.068268 
	C1244.211182,392.747955 1246.524536,400.950745 1239.563477,407.195679 
	C1232.320801,413.693146 1223.887451,415.421295 1214.217773,412.110687 
z"/>
<path fill="#C6B3D6" opacity="1.000000" stroke="none" 
	d="
M441.844543,423.236572 
	C430.546448,415.671753 424.651978,404.909607 421.447754,392.464844 
	C419.974670,386.743500 423.548584,382.425385 429.846069,382.323151 
	C439.837280,382.161011 449.832977,382.273041 459.826782,382.272675 
	C475.317200,382.272095 490.807678,382.244995 506.297974,382.287140 
	C514.989136,382.310791 518.066467,386.403564 515.792053,394.740021 
	C507.000793,426.963776 472.013733,440.596405 441.844543,423.236572 
z"/>
<path fill="#C6B3D6" opacity="1.000000" stroke="none" 
	d="
M490.718506,329.904327 
	C494.331238,316.627686 505.475616,309.227905 517.811035,311.573029 
	C530.089844,313.907349 538.436523,325.268341 536.816162,337.441620 
	C535.200073,349.582214 524.669067,358.420105 512.484802,357.861053 
	C498.344757,357.212250 488.427429,344.710999 490.718506,329.904327 
z"/>
<path fill="#C6B3D6" opacity="1.000000" stroke="none" 
	d="
M429.021667,311.709137 
	C441.311310,315.175690 448.667084,325.217407 447.511505,336.485260 
	C446.322449,348.079376 437.431519,356.916779 426.043396,357.824158 
	C414.857544,358.715424 404.620911,351.505127 401.617096,340.619202 
	C397.035858,324.016693 410.889557,309.140594 429.021667,311.709137 
z"/>
</svg>